<?xml version="1.0" encoding="UTF-8"?>
<svg xmlns="http://www.w3.org/2000/svg" xmlns:xlink="http://www.w3.org/1999/xlink" width="100px" height="100px" viewBox="0 0 100 100" version="1.1">
<g id="surface1">
<path style="fill-rule:evenodd;fill:rgb(0%,0%,0%);fill-opacity:1;stroke-width:1.5;stroke-linecap:round;stroke-linejoin:round;stroke:rgb(0%,0%,0%);stroke-opacity:1;stroke-miterlimit:4;" d="M 22.000781 10.000781 C 32.500195 10.999219 38.499609 18.000586 38.000391 38.999414 L 14.999414 38.999414 C 14.999414 29.999414 24.999609 32.500781 22.999219 18.000586 " transform="matrix(2.222222,0,0,2.222222,0,0.666667)"/>
<path style="fill-rule:evenodd;fill:rgb(0%,0%,0%);fill-opacity:1;stroke-width:1.5;stroke-linecap:round;stroke-linejoin:round;stroke:rgb(0%,0%,0%);stroke-opacity:1;stroke-miterlimit:4;" d="M 23.999414 18.000586 C 24.380859 20.909766 18.45 25.369336 15.999609 27.000586 C 13.000781 28.999219 13.180078 31.340625 11.000391 30.999609 C 9.958008 30.05918 12.410156 27.960352 11.000391 28.000781 C 10.000195 28.000781 11.190234 29.229492 10.000195 29.999414 C 9 29.999414 5.997656 30.999609 5.999414 26.000391 C 5.999414 24 12.000586 13.999805 12.000586 13.999805 C 12.000586 13.999805 13.890234 12.099609 13.999219 10.5 C 13.269727 9.506836 13.5 8.499609 13.5 7.499414 C 14.500195 6.499219 16.500586 10.000781 16.500586 10.000781 L 18.499219 10.000781 C 18.499219 10.000781 19.279687 8.007422 21.000586 7.000195 C 22.000781 7.000195 22.000781 10.000781 22.000781 10.000781 " transform="matrix(2.222222,0,0,2.222222,0,0.666667)"/>
<path style="fill-rule:evenodd;fill:rgb(100%,100%,100%);fill-opacity:1;stroke-width:1.5;stroke-linecap:round;stroke-linejoin:round;stroke:rgb(100%,100%,100%);stroke-opacity:1;stroke-miterlimit:4;" d="M 9.499219 25.499414 C 9.499219 25.775391 9.275977 26.000391 9 26.000391 C 8.724023 26.000391 8.500781 25.775391 8.500781 25.499414 C 8.500781 25.223437 8.724023 25.000195 9 25.000195 C 9.275977 25.000195 9.499219 25.223437 9.499219 25.499414 Z M 9.499219 25.499414 " transform="matrix(2.222222,0,0,2.222222,0,0.666667)"/>
<path style="fill-rule:evenodd;fill:rgb(100%,100%,100%);fill-opacity:1;stroke-width:1.5;stroke-linecap:round;stroke-linejoin:round;stroke:rgb(100%,100%,100%);stroke-opacity:1;stroke-miterlimit:4;" d="M 14.999961 15.500699 C 15.000823 16.328363 14.775757 17.000267 14.499283 16.999539 C 14.223688 17.000334 13.999814 16.327818 14.000475 15.499275 C 13.999613 14.671611 14.224679 13.999707 14.500274 13.998912 C 14.776748 13.99964 15.000622 14.672156 14.999961 15.500699 Z M 14.999961 15.500699 " transform="matrix(1.924444,1.111111,-1.111111,1.924444,21.54,-10.828889)"/>
<path style=" stroke:none;fill-rule:evenodd;fill:rgb(100%,100%,100%);fill-opacity:1;" d="M 54.554688 23.777344 L 53.554688 27 L 54.667969 27.332031 C 61.667969 29.554688 67.222656 32.867188 72.222656 42.332031 C 77.222656 51.800781 79.445312 65.246094 78.332031 87.332031 L 78.222656 88.445312 L 83.222656 88.445312 L 83.332031 87.332031 C 84.445312 64.976562 81.378906 49.890625 76.109375 39.910156 C 70.84375 29.933594 63.246094 25.15625 55.6875 24 Z M 54.554688 23.777344 "/>
</g>
</svg>
