<?xml version="1.0" encoding="UTF-8"?>
<svg xmlns="http://www.w3.org/2000/svg" xmlns:xlink="http://www.w3.org/1999/xlink" width="100px" height="100px" viewBox="0 0 100 100" version="1.1">
<g id="surface1">
<path style="fill:none;stroke-width:1.5;stroke-linecap:round;stroke-linejoin:miter;stroke:rgb(0%,0%,0%);stroke-opacity:1;stroke-miterlimit:4;" d="M 22.5 11.629687 L 22.5 5.999414 " transform="matrix(2.222222,0,0,2.222222,0,0)"/>
<path style="fill-rule:evenodd;fill:rgb(0%,0%,0%);fill-opacity:1;stroke-width:1.5;stroke-linecap:butt;stroke-linejoin:miter;stroke:rgb(0%,0%,0%);stroke-opacity:1;stroke-miterlimit:4;" d="M 22.5 24.999609 C 22.5 24.999609 27 17.500781 25.500586 14.500195 C 25.500586 14.500195 24.500391 12.000586 22.5 12.000586 C 20.499609 12.000586 19.499414 14.500195 19.499414 14.500195 C 18 17.500781 22.5 24.999609 22.5 24.999609 " transform="matrix(2.222222,0,0,2.222222,0,0)"/>
<path style="fill-rule:evenodd;fill:rgb(0%,0%,0%);fill-opacity:1;stroke-width:1.5;stroke-linecap:round;stroke-linejoin:round;stroke:rgb(0%,0%,0%);stroke-opacity:1;stroke-miterlimit:4;" d="M 12.499805 37.000195 C 18 40.5 27 40.5 32.500195 37.000195 L 32.500195 30.000586 C 32.500195 30.000586 41.500195 25.500586 38.499609 19.499414 C 34.500586 13.000781 24.999609 15.999609 22.5 23.500195 L 22.5 27 L 22.5 23.500195 C 20.000391 15.999609 10.499414 13.000781 6.500391 19.499414 C 3.499805 25.500586 12.499805 30.000586 12.499805 30.000586 L 12.499805 37.000195 " transform="matrix(2.222222,0,0,2.222222,0,0)"/>
<path style="fill:none;stroke-width:1.5;stroke-linecap:round;stroke-linejoin:miter;stroke:rgb(0%,0%,0%);stroke-opacity:1;stroke-miterlimit:4;" d="M 20.000391 7.999805 L 24.999609 7.999805 " transform="matrix(2.222222,0,0,2.222222,0,0)"/>
<path style="fill:none;stroke-width:1.5;stroke-linecap:round;stroke-linejoin:round;stroke:rgb(100%,100%,100%);stroke-opacity:1;stroke-miterlimit:4;" d="M 31.999219 29.499609 C 31.999219 29.499609 40.5 25.500586 38.030273 19.849219 C 34.150781 13.999219 24.999609 18 22.5 24.500391 L 22.5 26.599219 L 22.5 24.500391 C 20.000391 18 10.849219 13.999219 6.969727 19.849219 C 4.5 25.500586 13.000781 29.499609 13.000781 29.499609 " transform="matrix(2.222222,0,0,2.222222,0,0)"/>
<path style="fill:none;stroke-width:1.5;stroke-linecap:round;stroke-linejoin:round;stroke:rgb(100%,100%,100%);stroke-opacity:1;stroke-miterlimit:4;" d="M 12.499805 30.000586 C 18 27 27 27 32.500195 30.000586 M 12.499805 33.500391 C 18 30.499805 27 30.499805 32.500195 33.500391 M 12.499805 37.000195 C 18 33.999609 27 33.999609 32.500195 37.000195 " transform="matrix(2.222222,0,0,2.222222,0,0)"/>
</g>
</svg>
