<?xml version="1.0" encoding="UTF-8"?>
<svg xmlns="http://www.w3.org/2000/svg" xmlns:xlink="http://www.w3.org/1999/xlink" width="100px" height="100px" viewBox="0 0 100 100" version="1.1">
<g id="surface1">
<path style="fill-rule:evenodd;fill:rgb(100%,100%,100%);fill-opacity:1;stroke-width:1.5;stroke-linecap:butt;stroke-linejoin:round;stroke:rgb(0%,0%,0%);stroke-opacity:1;stroke-miterlimit:4;" d="M 9 35.999414 C 12.39082 35.030859 19.10918 36.430078 22.5 34.000781 C 25.89082 36.430078 32.60918 35.030859 36 35.999414 C 36 35.999414 37.650586 36.54082 39.000586 37.999805 C 38.320312 38.970117 37.35 38.989453 36 38.500781 C 32.60918 37.530469 25.89082 38.95957 22.5 37.500586 C 19.10918 38.95957 12.39082 37.530469 9 38.500781 C 7.65 38.989453 6.679687 38.970117 5.999414 37.999805 C 7.349414 36.54082 9 35.999414 9 35.999414 Z M 9 35.999414 " transform="matrix(2.222222,0,0,2.222222,0,1.333333)"/>
<path style="fill-rule:evenodd;fill:rgb(100%,100%,100%);fill-opacity:1;stroke-width:1.5;stroke-linecap:butt;stroke-linejoin:round;stroke:rgb(0%,0%,0%);stroke-opacity:1;stroke-miterlimit:4;" d="M 14.999414 32.000391 C 17.500781 34.5 27.499219 34.5 30.000586 32.000391 C 30.499805 30.499219 30.000586 30 30.000586 30 C 30.000586 27.500391 27.499219 25.999219 27.499219 25.999219 C 32.999414 24.499805 33.500391 14.499609 22.5 10.500586 C 11.499609 14.499609 12.000586 24.499805 17.500781 25.999219 C 17.500781 25.999219 14.999414 27.500391 14.999414 30 C 14.999414 30 14.500195 30.499219 14.999414 32.000391 Z M 14.999414 32.000391 " transform="matrix(2.222222,0,0,2.222222,0,1.333333)"/>
<path style="fill-rule:evenodd;fill:rgb(100%,100%,100%);fill-opacity:1;stroke-width:1.5;stroke-linecap:butt;stroke-linejoin:round;stroke:rgb(0%,0%,0%);stroke-opacity:1;stroke-miterlimit:4;" d="M 24.999609 7.999219 C 24.999609 9.380859 23.879883 10.500586 22.5 10.500586 C 21.120117 10.500586 20.000391 9.380859 20.000391 7.999219 C 20.000391 6.619336 21.120117 5.499609 22.5 5.499609 C 23.879883 5.499609 24.999609 6.619336 24.999609 7.999219 Z M 24.999609 7.999219 " transform="matrix(2.222222,0,0,2.222222,0,1.333333)"/>
<path style="fill:none;stroke-width:1.5;stroke-linecap:round;stroke-linejoin:miter;stroke:rgb(0%,0%,0%);stroke-opacity:1;stroke-miterlimit:4;" d="M 17.500781 25.999219 L 27.499219 25.999219 M 14.999414 30 L 30.000586 30 M 22.5 15.499805 L 22.5 20.500781 M 20.000391 17.999414 L 24.999609 17.999414 " transform="matrix(2.222222,0,0,2.222222,0,1.333333)"/>
</g>
</svg>
