<?xml version="1.0" encoding="UTF-8"?>
<svg xmlns="http://www.w3.org/2000/svg" xmlns:xlink="http://www.w3.org/1999/xlink" width="100px" height="100px" viewBox="0 0 100 100" version="1.1">
<g id="surface1">
<path style="fill-rule:evenodd;fill:rgb(100%,100%,100%);fill-opacity:1;stroke-width:1.5;stroke-linecap:butt;stroke-linejoin:round;stroke:rgb(0%,0%,0%);stroke-opacity:1;stroke-miterlimit:4;" d="M 9 38.999414 L 36 38.999414 L 36 36.000586 L 9 36.000586 Z M 9 38.999414 " transform="matrix(2.222222,0,0,2.222222,0,0.666667)"/>
<path style="fill-rule:evenodd;fill:rgb(100%,100%,100%);fill-opacity:1;stroke-width:1.5;stroke-linecap:butt;stroke-linejoin:round;stroke:rgb(0%,0%,0%);stroke-opacity:1;stroke-miterlimit:4;" d="M 12.000586 36.000586 L 12.000586 31.999805 L 32.999414 31.999805 L 32.999414 36.000586 Z M 12.000586 36.000586 " transform="matrix(2.222222,0,0,2.222222,0,0.666667)"/>
<path style="fill-rule:evenodd;fill:rgb(100%,100%,100%);fill-opacity:1;stroke-width:1.5;stroke-linecap:butt;stroke-linejoin:round;stroke:rgb(0%,0%,0%);stroke-opacity:1;stroke-miterlimit:4;" d="M 11.000391 13.999805 L 11.000391 9.000586 L 14.999414 9.000586 L 14.999414 10.999219 L 20.000391 10.999219 L 20.000391 9.000586 L 24.999609 9.000586 L 24.999609 10.999219 L 30.000586 10.999219 L 30.000586 9.000586 L 33.999609 9.000586 L 33.999609 13.999805 " transform="matrix(2.222222,0,0,2.222222,0,0.666667)"/>
<path style="fill-rule:evenodd;fill:rgb(100%,100%,100%);fill-opacity:1;stroke-width:1.5;stroke-linecap:round;stroke-linejoin:round;stroke:rgb(0%,0%,0%);stroke-opacity:1;stroke-miterlimit:4;" d="M 33.999609 13.999805 L 31.000781 17.000391 L 13.999219 17.000391 L 11.000391 13.999805 " transform="matrix(2.222222,0,0,2.222222,0,0.666667)"/>
<path style="fill-rule:evenodd;fill:rgb(100%,100%,100%);fill-opacity:1;stroke-width:1.5;stroke-linecap:butt;stroke-linejoin:miter;stroke:rgb(0%,0%,0%);stroke-opacity:1;stroke-miterlimit:4;" d="M 31.000781 17.000391 L 31.000781 29.500195 L 13.999219 29.500195 L 13.999219 17.000391 " transform="matrix(2.222222,0,0,2.222222,0,0.666667)"/>
<path style="fill-rule:evenodd;fill:rgb(100%,100%,100%);fill-opacity:1;stroke-width:1.5;stroke-linecap:round;stroke-linejoin:round;stroke:rgb(0%,0%,0%);stroke-opacity:1;stroke-miterlimit:4;" d="M 31.000781 29.500195 L 32.500195 31.999805 L 12.499805 31.999805 L 13.999219 29.500195 " transform="matrix(2.222222,0,0,2.222222,0,0.666667)"/>
<path style="fill:none;stroke-width:1.5;stroke-linecap:round;stroke-linejoin:miter;stroke:rgb(0%,0%,0%);stroke-opacity:1;stroke-miterlimit:4;" d="M 11.000391 13.999805 L 33.999609 13.999805 " transform="matrix(2.222222,0,0,2.222222,0,0.666667)"/>
</g>
</svg>
