<?xml version="1.0" encoding="UTF-8"?>
<svg xmlns="http://www.w3.org/2000/svg" xmlns:xlink="http://www.w3.org/1999/xlink" width="100px" height="100px" viewBox="0 0 100 100" version="1.1">
<g id="surface1">
<path style="fill-rule:nonzero;fill:rgb(100%,100%,100%);fill-opacity:1;stroke-width:1.5;stroke-linecap:butt;stroke-linejoin:round;stroke:rgb(0%,0%,0%);stroke-opacity:1;stroke-miterlimit:4;" d="M 9 25.999805 C 17.500781 24.500391 30.000586 24.500391 36 25.999805 L 38.499609 13.5 L 31.000781 24.999609 L 30.700195 10.900195 L 25.500586 24.500391 L 22.5 10.000195 L 19.499414 24.500391 L 14.299805 10.900195 L 13.999219 24.999609 L 6.500391 13.5 Z M 9 25.999805 " transform="matrix(2.222222,0,0,2.222222,0,0)"/>
<path style="fill-rule:nonzero;fill:rgb(100%,100%,100%);fill-opacity:1;stroke-width:1.5;stroke-linecap:butt;stroke-linejoin:round;stroke:rgb(0%,0%,0%);stroke-opacity:1;stroke-miterlimit:4;" d="M 9 25.999805 C 9 28.000195 10.499414 28.000195 11.499609 30.000586 C 12.499805 31.5 12.499805 31.000781 12.000586 33.500391 C 10.499414 34.500586 11.000391 36 11.000391 36 C 9.499219 37.499414 11.000391 38.499609 11.000391 38.499609 C 17.500781 39.499805 27.499219 39.499805 33.999609 38.499609 C 33.999609 38.499609 35.500781 37.499414 33.999609 36 C 33.999609 36 34.500586 34.500586 32.999414 33.500391 C 32.500195 31.000781 32.500195 31.5 33.500391 30.000586 C 34.500586 28.000195 36 28.000195 36 25.999805 C 27.499219 24.500391 17.500781 24.500391 9 25.999805 Z M 9 25.999805 " transform="matrix(2.222222,0,0,2.222222,0,0)"/>
<path style="fill:none;stroke-width:1.5;stroke-linecap:butt;stroke-linejoin:round;stroke:rgb(0%,0%,0%);stroke-opacity:1;stroke-miterlimit:4;" d="M 11.499609 30.000586 C 14.999414 29.000391 30.000586 29.000391 33.500391 30.000586 " transform="matrix(2.222222,0,0,2.222222,0,0)"/>
<path style="fill:none;stroke-width:1.5;stroke-linecap:butt;stroke-linejoin:round;stroke:rgb(0%,0%,0%);stroke-opacity:1;stroke-miterlimit:4;" d="M 12.000586 33.500391 C 18 32.500195 27 32.500195 32.999414 33.500391 " transform="matrix(2.222222,0,0,2.222222,0,0)"/>
<path style="fill-rule:nonzero;fill:rgb(100%,100%,100%);fill-opacity:1;stroke-width:1.5;stroke-linecap:butt;stroke-linejoin:round;stroke:rgb(0%,0%,0%);stroke-opacity:1;stroke-miterlimit:4;" d="M 7.999805 12.000586 C 7.999805 13.104492 7.105078 13.999219 5.999414 13.999219 C 4.895508 13.999219 4.000781 13.104492 4.000781 12.000586 C 4.000781 10.894922 4.895508 10.000195 5.999414 10.000195 C 7.105078 10.000195 7.999805 10.894922 7.999805 12.000586 Z M 7.999805 12.000586 " transform="matrix(2.222222,0,0,2.222222,0,0)"/>
<path style="fill-rule:nonzero;fill:rgb(100%,100%,100%);fill-opacity:1;stroke-width:1.5;stroke-linecap:butt;stroke-linejoin:round;stroke:rgb(0%,0%,0%);stroke-opacity:1;stroke-miterlimit:4;" d="M 15.999609 9 C 15.999609 10.103906 15.104883 11.000391 13.999219 11.000391 C 12.895312 11.000391 12.000586 10.103906 12.000586 9 C 12.000586 7.896094 12.895312 6.999609 13.999219 6.999609 C 15.104883 6.999609 15.999609 7.896094 15.999609 9 Z M 15.999609 9 " transform="matrix(2.222222,0,0,2.222222,0,0)"/>
<path style="fill-rule:nonzero;fill:rgb(100%,100%,100%);fill-opacity:1;stroke-width:1.5;stroke-linecap:butt;stroke-linejoin:round;stroke:rgb(0%,0%,0%);stroke-opacity:1;stroke-miterlimit:4;" d="M 24.500391 7.999805 C 24.500391 9.103711 23.603906 10.000195 22.5 10.000195 C 21.396094 10.000195 20.499609 9.103711 20.499609 7.999805 C 20.499609 6.895898 21.396094 5.999414 22.5 5.999414 C 23.603906 5.999414 24.500391 6.895898 24.500391 7.999805 Z M 24.500391 7.999805 " transform="matrix(2.222222,0,0,2.222222,0,0)"/>
<path style="fill-rule:nonzero;fill:rgb(100%,100%,100%);fill-opacity:1;stroke-width:1.5;stroke-linecap:butt;stroke-linejoin:round;stroke:rgb(0%,0%,0%);stroke-opacity:1;stroke-miterlimit:4;" d="M 32.999414 9 C 32.999414 10.103906 32.104687 11.000391 31.000781 11.000391 C 29.895117 11.000391 29.000391 10.103906 29.000391 9 C 29.000391 7.896094 29.895117 6.999609 31.000781 6.999609 C 32.104687 6.999609 32.999414 7.896094 32.999414 9 Z M 32.999414 9 " transform="matrix(2.222222,0,0,2.222222,0,0)"/>
<path style="fill-rule:nonzero;fill:rgb(100%,100%,100%);fill-opacity:1;stroke-width:1.5;stroke-linecap:butt;stroke-linejoin:round;stroke:rgb(0%,0%,0%);stroke-opacity:1;stroke-miterlimit:4;" d="M 40.999219 12.000586 C 40.999219 13.104492 40.104492 13.999219 39.000586 13.999219 C 37.894922 13.999219 37.000195 13.104492 37.000195 12.000586 C 37.000195 10.894922 37.894922 10.000195 39.000586 10.000195 C 40.104492 10.000195 40.999219 10.894922 40.999219 12.000586 Z M 40.999219 12.000586 " transform="matrix(2.222222,0,0,2.222222,0,0)"/>
</g>
</svg>
