<?xml version="1.0" encoding="UTF-8"?>
<svg xmlns="http://www.w3.org/2000/svg" xmlns:xlink="http://www.w3.org/1999/xlink" width="100px" height="100px" viewBox="0 0 100 100" version="1.1">
<g id="surface1">
<path style="fill-rule:nonzero;fill:rgb(100%,100%,100%);fill-opacity:1;stroke-width:1.5;stroke-linecap:round;stroke-linejoin:miter;stroke:rgb(0%,0%,0%);stroke-opacity:1;stroke-miterlimit:4;" d="M 22.5 9 C 20.29043 9 18.499219 10.789453 18.499219 13.000781 C 18.499219 13.890234 18.789258 14.709375 19.279687 15.380859 C 17.330273 16.500586 15.999609 18.590625 15.999609 21.000586 C 15.999609 23.030859 16.940039 24.839648 18.40957 26.029687 C 15.410742 27.089648 11.000391 31.580859 11.000391 39.499805 L 33.999609 39.499805 C 33.999609 31.580859 29.589258 27.089648 26.59043 26.029687 C 28.059961 24.839648 29.000391 23.030859 29.000391 21.000586 C 29.000391 18.590625 27.669727 16.500586 25.720312 15.380859 C 26.210742 14.709375 26.500781 13.890234 26.500781 13.000781 C 26.500781 10.789453 24.70957 9 22.5 9 Z M 22.5 9 " transform="matrix(2.222222,0,0,2.222222,0,0)"/>
</g>
</svg>
